<svg width="22" height="21" viewBox="0 0 22 21" fill="none" xmlns="http://www.w3.org/2000/svg">
<path d="M10.9438 10.0116C10.9152 10.0116 10.8961 10.0116 10.8674 10.0116C10.8197 10.0021 10.7529 10.0021 10.6956 10.0116C7.92626 9.9257 5.83496 7.74846 5.83496 5.0651C5.83496 2.334 8.05995 0.109009 10.7911 0.109009C13.5222 0.109009 15.7471 2.334 15.7471 5.0651C15.7376 7.74846 13.6367 9.9257 10.9725 10.0116C10.9629 10.0116 10.9534 10.0116 10.9438 10.0116ZM10.7911 1.54141C8.85254 1.54141 7.26736 3.12659 7.26736 5.0651C7.26736 6.97497 8.75705 8.5124 10.6574 8.57925C10.7147 8.5697 10.8388 8.5697 10.9629 8.57925C12.8346 8.49331 14.3052 6.95587 14.3147 5.0651C14.3147 3.12659 12.7296 1.54141 10.7911 1.54141Z" fill="#64748B"/>
<path d="M10.9534 20.449C9.08177 20.449 7.20056 19.9715 5.77771 19.0166C4.45036 18.138 3.72461 16.9348 3.72461 15.6266C3.72461 14.3183 4.45036 13.1056 5.77771 12.2175C8.64251 10.3172 13.2835 10.3172 16.1292 12.2175C17.447 13.096 18.1823 14.2992 18.1823 15.6075C18.1823 16.9157 17.4565 18.1285 16.1292 19.0166C14.6968 19.9715 12.8251 20.449 10.9534 20.449ZM6.5703 13.4207C5.65357 14.0318 5.15701 14.8149 5.15701 15.6361C5.15701 16.4478 5.66312 17.2309 6.5703 17.8325C8.94808 19.4272 12.9588 19.4272 15.3366 17.8325C16.2533 17.2213 16.7499 16.4383 16.7499 15.617C16.7499 14.8053 16.2438 14.0223 15.3366 13.4207C12.9588 11.8355 8.94808 11.8355 6.5703 13.4207Z" fill="#64748B"/>
</svg>
