<svg width="22" height="22" viewBox="0 0 22 22" fill="none" xmlns="http://www.w3.org/2000/svg">
<path d="M16.0637 11.4095C16.0555 10.0052 16.6918 8.94678 17.9767 8.16638C17.258 7.13682 16.1708 6.57056 14.7377 6.46143C13.3807 6.35435 11.8961 7.25213 11.3525 7.25213C10.778 7.25213 9.46428 6.49849 8.4306 6.49849C6.29736 6.53144 4.03027 8.19932 4.03027 11.5927C4.03027 12.5955 4.21353 13.6313 4.58006 14.6979C5.07013 16.1022 6.83685 19.543 8.67976 19.4874C9.64342 19.4647 10.325 18.8038 11.579 18.8038C12.7959 18.8038 13.426 19.4874 14.5009 19.4874C16.3603 19.4606 17.9581 16.3328 18.4235 14.9244C15.9299 13.7486 16.0637 11.4816 16.0637 11.4095ZM13.8996 5.12918C14.9436 3.88959 14.8489 2.7612 14.818 2.35555C13.8955 2.40909 12.8289 2.98358 12.2214 3.68986C11.5522 4.44761 11.1589 5.38451 11.2434 6.44084C12.24 6.51702 13.1501 6.0043 13.8996 5.12918Z" fill="white"/>
</svg>
