<svg width="20" height="20" viewBox="0 0 20 20" fill="none" xmlns="http://www.w3.org/2000/svg">
<path d="M16.25 5.6L10.75 2.42C10.5223 2.28736 10.2635 2.21748 10 2.21748C9.73649 2.21748 9.47769 2.28736 9.25 2.42L3.75 5.6C3.29 5.87 3 6.36 3 6.9V13.25C3 13.79 3.29 14.28 3.75 14.55L9.25 17.73C9.71 18 10.29 18 10.75 17.73L16.25 14.55C16.71 14.28 17 13.79 17 13.25V6.9C17 6.36 16.71 5.87 16.25 5.6ZM5 12.96V8.34L9 10.66V15.27L5 12.96ZM10 8.93L6 6.61L10 4.3L14 6.61L10 8.93ZM11 15.27V10.66L15 8.34V12.96L11 15.27ZM5 0H1.5C0.67 0 0 0.67 0 1.5V5H2V2H5V0ZM15 0H18.5C19.33 0 20 0.67 20 1.5V5H18V2H15V0ZM5 20H1.5C0.67 20 0 19.33 0 18.5V15H2V18H5V20ZM15 20H18.5C19.33 20 20 19.33 20 18.5V15H18V18H15V20Z" fill="black"/>
</svg>
