<svg width="22" height="22" viewBox="0 0 22 22" fill="none" xmlns="http://www.w3.org/2000/svg">
<path fill-rule="evenodd" clip-rule="evenodd" d="M2.8418 10.5538C2.8418 10.1167 3.19618 9.76228 3.63334 9.76228L16.9207 9.76228L14.704 7.70385C14.3836 7.40639 14.3651 6.90556 14.6625 6.58521C14.96 6.26487 15.4608 6.24632 15.7812 6.54378L19.475 9.97378C19.6363 10.1236 19.728 10.3337 19.728 10.5538C19.728 10.7739 19.6363 10.9841 19.475 11.1339L15.7812 14.5639C15.4608 14.8613 14.96 14.8428 14.6625 14.5224C14.3651 14.2021 14.3836 13.7012 14.704 13.4038L16.9207 11.3454L3.63334 11.3454C3.19618 11.3454 2.8418 10.991 2.8418 10.5538Z" fill="white"/>
</svg>
