<svg width="17" height="22" viewBox="0 0 17 22" fill="none" xmlns="http://www.w3.org/2000/svg">
<path d="M4.96 5.257C6.357 4.21 8.312 3.746 10.208 4.138C11.452 4.396 12.898 4.93 14.045 6.13C15.209 7.347 15.955 9.134 15.999 11.678C16.037 13.854 15.008 16.198 13.627 17.81C12.931 18.623 12.094 19.313 11.177 19.69C10.24 20.077 9.182 20.149 8.184 19.632C7.291 19.17 6.703 18.568 6.414 17.818C6.136 17.099 6.191 16.386 6.279 15.826L6.319 15.595L6.432 15.025C6.482 14.775 6.521 14.566 6.541 14.373C6.581 13.99 6.533 13.79 6.441 13.647C6.219 13.303 5.937 13.097 5.521 12.827L4.972 12.472L4.706 12.29C4.076 11.839 3.408 11.197 3.132 10.051C2.647 8.046 3.542 6.321 4.96 5.257ZM9.803 6.097C8.458 5.819 7.09 6.16 6.159 6.857C5.251 7.538 4.814 8.498 5.076 9.582C5.2 10.095 5.463 10.379 5.915 10.695L6.191 10.878L6.662 11.178C7.144 11.495 7.712 11.928 8.122 12.564C8.567 13.254 8.592 13.986 8.53 14.58C8.50931 14.7728 8.48062 14.9646 8.444 15.155L8.286 15.955L8.255 16.137C8.184 16.589 8.195 16.877 8.279 17.098C8.352 17.286 8.532 17.56 9.103 17.856C9.467 18.044 9.893 18.057 10.413 17.842C10.953 17.619 11.547 17.164 12.108 16.51C13.241 15.187 14.028 13.302 13.999 11.713C13.962 9.559 13.345 8.292 12.599 7.512C11.838 6.715 10.829 6.309 9.803 6.097ZM2 1.5C2.53043 1.5 3.03914 1.71071 3.41421 2.08579C3.78929 2.46086 4 2.96957 4 3.5C4 4.03043 3.78929 4.53914 3.41421 4.91421C3.03914 5.28929 2.53043 5.5 2 5.5C1.46957 5.5 0.960859 5.28929 0.585786 4.91421C0.210714 4.53914 0 4.03043 0 3.5C0 2.96957 0.210714 2.46086 0.585786 2.08579C0.960859 1.71071 1.46957 1.5 2 1.5ZM15.5 2.5C15.7652 2.5 16.0196 2.60536 16.2071 2.79289C16.3946 2.98043 16.5 3.23478 16.5 3.5C16.5 3.76522 16.3946 4.01957 16.2071 4.20711C16.0196 4.39464 15.7652 4.5 15.5 4.5C15.2348 4.5 14.9804 4.39464 14.7929 4.20711C14.6054 4.01957 14.5 3.76522 14.5 3.5C14.5 3.23478 14.6054 2.98043 14.7929 2.79289C14.9804 2.60536 15.2348 2.5 15.5 2.5ZM6.5 0C6.69698 -2.93527e-09 6.89204 0.0387987 7.07403 0.114181C7.25601 0.189563 7.42137 0.300052 7.56066 0.43934C7.69995 0.578628 7.81044 0.743986 7.88582 0.925975C7.9612 1.10796 8 1.30302 8 1.5C8 1.69698 7.9612 1.89204 7.88582 2.07403C7.81044 2.25601 7.69995 2.42137 7.56066 2.56066C7.42137 2.69995 7.25601 2.81044 7.07403 2.88582C6.89204 2.9612 6.69698 3 6.5 3C6.10218 3 5.72064 2.84196 5.43934 2.56066C5.15804 2.27936 5 1.89782 5 1.5C5 1.10218 5.15804 0.720644 5.43934 0.43934C5.72064 0.158035 6.10218 5.92805e-09 6.5 0ZM11.5 0C11.697 -2.93527e-09 11.892 0.0387987 12.074 0.114181C12.256 0.189563 12.4214 0.300052 12.5607 0.43934C12.6999 0.578628 12.8104 0.743986 12.8858 0.925975C12.9612 1.10796 13 1.30302 13 1.5C13 1.69698 12.9612 1.89204 12.8858 2.07403C12.8104 2.25601 12.6999 2.42137 12.5607 2.56066C12.4214 2.69995 12.256 2.81044 12.074 2.88582C11.892 2.9612 11.697 3 11.5 3C11.1022 3 10.7206 2.84196 10.4393 2.56066C10.158 2.27936 10 1.89782 10 1.5C10 1.10218 10.158 0.720644 10.4393 0.43934C10.7206 0.158035 11.1022 5.92805e-09 11.5 0Z" fill="black"/>
</svg>
