<svg width="22" height="22" viewBox="0 0 22 22" fill="none" xmlns="http://www.w3.org/2000/svg">
<path d="M19.6336 9.20095H18.926V9.16449H11.019V12.6787H15.9841C15.2597 14.7244 13.3133 16.1929 11.019 16.1929C8.10786 16.1929 5.74762 13.8327 5.74762 10.9216C5.74762 8.01051 8.10786 5.65027 11.019 5.65027C12.3627 5.65027 13.5852 6.1572 14.516 6.98524L17.001 4.50024C15.4319 3.03788 13.3331 2.13605 11.019 2.13605C6.16713 2.13605 2.2334 6.06978 2.2334 10.9216C2.2334 15.7734 6.16713 19.7072 11.019 19.7072C15.8708 19.7072 19.8045 15.7734 19.8045 10.9216C19.8045 10.3325 19.7439 9.75752 19.6336 9.20095Z" fill="#FFC107"/>
<path d="M3.24707 6.83237L6.13357 8.94925C6.9146 7.01555 8.80613 5.65027 11.0197 5.65027C12.3634 5.65027 13.5859 6.1572 14.5167 6.98524L17.0017 4.50024C15.4326 3.03788 13.3338 2.13605 11.0197 2.13605C7.64512 2.13605 4.71865 4.0412 3.24707 6.83237Z" fill="#FF3D00"/>
<path d="M11.0196 19.7075C13.2889 19.7075 15.3509 18.839 16.9099 17.4267L14.1907 15.1258C13.279 15.8192 12.165 16.1942 11.0196 16.1932C8.73446 16.1932 6.79417 14.7362 6.06321 12.7027L3.19824 14.9101C4.65225 17.7553 7.60508 19.7075 11.0196 19.7075Z" fill="#4CAF50"/>
<path d="M19.6332 9.20096H18.9256V9.1645H11.0186V12.6787H15.9837C15.6372 13.6523 15.0131 14.5031 14.1884 15.1259L14.1897 15.1251L16.9088 17.426C16.7164 17.6008 19.8041 15.3144 19.8041 10.9216C19.8041 10.3325 19.7435 9.75752 19.6332 9.20096Z" fill="#1976D2"/>
</svg>
