<svg width="30" height="29" viewBox="0 0 30 29" fill="none" xmlns="http://www.w3.org/2000/svg">
<circle cx="14.7861" cy="14.25" r="14.25" fill="white"/>
<path d="M6.576 17.7451V11.7851H7.664V14.3851H10.2V11.7851H11.296V17.7451H10.2V15.3451H7.664V17.7451H6.576ZM12.4432 17.7451V11.7851H14.3872C15.0165 11.7851 15.5632 11.9131 16.0272 12.1691C16.4965 12.4198 16.8592 12.7691 17.1152 13.2171C17.3712 13.6598 17.4992 14.1745 17.4992 14.7611C17.4992 15.3425 17.3712 15.8598 17.1152 16.3131C16.8592 16.7611 16.4965 17.1131 16.0272 17.3691C15.5632 17.6198 15.0165 17.7451 14.3872 17.7451H12.4432ZM13.5312 16.7851H14.4112C14.8165 16.7851 15.1659 16.7025 15.4592 16.5371C15.7579 16.3665 15.9899 16.1318 16.1552 15.8331C16.3205 15.5291 16.4032 15.1718 16.4032 14.7611C16.4032 14.3451 16.3205 13.9878 16.1552 13.6891C15.9899 13.3905 15.7579 13.1585 15.4592 12.9931C15.1659 12.8278 14.8165 12.7451 14.4112 12.7451H13.5312V16.7851ZM18.3651 17.7451V11.7851H20.5811C20.9864 11.7851 21.3437 11.8598 21.6531 12.0091C21.9677 12.1531 22.2131 12.3665 22.3891 12.6491C22.5651 12.9265 22.6531 13.2651 22.6531 13.6651C22.6531 14.0758 22.5544 14.4251 22.3571 14.7131C22.1651 15.0011 21.9037 15.2145 21.5731 15.3531L22.9411 17.7451H21.7091L20.2451 15.1291L20.9491 15.5451H19.4531V17.7451H18.3651ZM19.4531 14.5851H20.5971C20.7944 14.5851 20.9651 14.5478 21.1091 14.4731C21.2531 14.3931 21.3651 14.2838 21.4451 14.1451C21.5251 14.0065 21.5651 13.8465 21.5651 13.6651C21.5651 13.4785 21.5251 13.3185 21.4451 13.1851C21.3651 13.0465 21.2531 12.9398 21.1091 12.8651C20.9651 12.7851 20.7944 12.7451 20.5971 12.7451H19.4531V14.5851Z" fill="black"/>
</svg>
