<svg width="21" height="20" viewBox="0 0 21 20" fill="none" xmlns="http://www.w3.org/2000/svg">
<path d="M19 8C19 7.73478 18.8946 7.48043 18.7071 7.29289C18.5196 7.10536 18.2652 7 18 7C17.7348 7 17.4804 7.10536 17.2929 7.29289C17.1054 7.48043 17 7.73478 17 8H19ZM5 8C5 7.73478 4.89465 7.48043 4.70711 7.29289C4.51957 7.10536 4.26522 7 4 7C3.73479 7 3.48043 7.10536 3.2929 7.29289C3.10536 7.48043 3 7.73478 3 8H5ZM19.293 10.707C19.4816 10.8892 19.7342 10.99 19.9964 10.9877C20.2586 10.9854 20.5094 10.8802 20.6948 10.6948C20.8802 10.5094 20.9854 10.2586 20.9877 9.9964C20.99 9.7342 20.8892 9.4816 20.707 9.293L19.293 10.707ZM11 1L11.707 0.293C11.5195 0.105529 11.2652 0.000213623 11 0.000213623C10.7348 0.000213623 10.4805 0.105529 10.293 0.293L11 1ZM1.293 9.293C1.19749 9.38525 1.12131 9.49559 1.0689 9.6176C1.01649 9.7396 0.988908 9.87082 0.987754 10.0036C0.986601 10.1364 1.0119 10.2681 1.06218 10.391C1.11246 10.5139 1.18672 10.6255 1.28061 10.7194C1.3745 10.8133 1.48615 10.8875 1.60905 10.9378C1.73195 10.9881 1.86363 11.0134 1.99641 11.0123C2.12919 11.0111 2.26041 10.9835 2.38241 10.9311C2.50441 10.8787 2.61476 10.8025 2.707 10.707L1.293 9.293ZM6 20H16V18H6V20ZM19 17V8H17V17H19ZM5 17V8H3V17H5ZM20.707 9.293L11.707 0.293L10.293 1.707L19.293 10.707L20.707 9.293ZM10.293 0.293L1.293 9.293L2.707 10.707L11.707 1.707L10.293 0.293ZM16 20C16.7957 20 17.5587 19.6839 18.1213 19.1213C18.6839 18.5587 19 17.7956 19 17H17C17 17.2652 16.8946 17.5196 16.7071 17.7071C16.5196 17.8946 16.2652 18 16 18V20ZM6 18C5.73479 18 5.48043 17.8946 5.2929 17.7071C5.10536 17.5196 5 17.2652 5 17H3C3 17.7956 3.31608 18.5587 3.87868 19.1213C4.44129 19.6839 5.20436 20 6 20V18Z" fill="black"/>
</svg>
