<svg width="29" height="29" viewBox="0 0 29 29" fill="none" xmlns="http://www.w3.org/2000/svg">
<circle cx="14.5623" cy="14.0261" r="14.0261" fill="white"/>
<path d="M11.9219 20.2724V16.0493" stroke="#292D32" stroke-width="0.904938" stroke-miterlimit="10" stroke-linecap="round" stroke-linejoin="round"/>
<path d="M11.9219 10.0164V8.20654" stroke="#292D32" stroke-width="0.904938" stroke-miterlimit="10" stroke-linecap="round" stroke-linejoin="round"/>
<path d="M18.5576 20.2724V18.4625" stroke="#292D32" stroke-width="0.904938" stroke-miterlimit="10" stroke-linecap="round" stroke-linejoin="round"/>
<path d="M18.5576 12.4296V8.20654" stroke="#292D32" stroke-width="0.904938" stroke-miterlimit="10" stroke-linecap="round" stroke-linejoin="round"/>
<path d="M13.7311 11.2231V14.8428C13.7311 15.5064 13.4294 16.0494 12.5245 16.0494H11.3179C10.413 16.0494 10.1113 15.5064 10.1113 14.8428V11.2231C10.1113 10.5594 10.413 10.0165 11.3179 10.0165H12.5245C13.4294 10.0165 13.7311 10.5594 13.7311 11.2231Z" stroke="#292D32" stroke-width="0.904938" stroke-miterlimit="10" stroke-linecap="round" stroke-linejoin="round"/>
<path d="M20.3678 13.6363V17.256C20.3678 17.9196 20.0662 18.4626 19.1612 18.4626H17.9546C17.0497 18.4626 16.748 17.9196 16.748 17.256V13.6363C16.748 12.9727 17.0497 12.4297 17.9546 12.4297H19.1612C20.0662 12.4297 20.3678 12.9727 20.3678 13.6363Z" stroke="#292D32" stroke-width="0.904938" stroke-miterlimit="10" stroke-linecap="round" stroke-linejoin="round"/>
</svg>
