<svg width="27" height="27" viewBox="0 0 27 27" fill="none" xmlns="http://www.w3.org/2000/svg">
<path d="M18.5 0.5V1.906C17.6798 2.04541 16.9009 2.36584 16.22 2.844L15.188 1.874L13.813 3.344L14.813 4.281C14.3567 4.94831 14.0475 5.70505 13.906 6.501H12.5V8.501H13.906C14.052 9.331 14.38 10.087 14.844 10.751L13.781 11.781L15.221 13.221L16.251 12.157C16.915 12.621 17.671 12.949 18.501 13.095V14.5H20.501V13.094C21.2969 12.9528 22.0536 12.644 22.721 12.188L23.657 13.188L25.127 11.812L24.157 10.782C24.627 10.112 24.947 9.337 25.095 8.5H26.5V6.5H25.094C24.9503 5.69022 24.6301 4.92202 24.156 4.25L25.094 3.312L23.687 1.906L22.75 2.844C22.078 2.36991 21.3098 2.04965 20.5 1.906V0.5H18.5ZM19.5 3.813C19.9851 3.80981 20.466 3.903 20.9149 4.08714C21.3637 4.27129 21.7715 4.54274 22.1146 4.88573C22.4576 5.22872 22.7292 5.63643 22.9135 6.08521C23.0977 6.53398 23.1911 7.01488 23.188 7.5C23.188 9.555 21.555 11.188 19.5 11.188C17.445 11.188 15.812 9.555 15.812 7.5C15.812 5.445 17.445 3.812 19.5 3.812V3.813ZM6.53 9.718L4.688 10.468L5.406 12.278C4.45029 12.8501 3.64632 13.6437 3.062 14.592L1.282 13.872L0.531998 15.717L2.312 16.435C2.17156 16.9759 2.09834 17.5321 2.094 18.091C2.094 18.661 2.179 19.217 2.312 19.747L0.531998 20.467L1.282 22.31L3.062 21.59C3.64112 22.5506 4.44568 23.3555 5.406 23.935L4.686 25.715L6.531 26.465L7.251 24.685C7.79194 24.8254 8.34814 24.8987 8.907 24.903C9.477 24.903 10.035 24.818 10.563 24.685L11.283 26.465L13.126 25.715L12.406 23.935C13.3552 23.3519 14.1492 22.5477 14.72 21.591L16.53 22.309L17.28 20.466L15.47 19.746C15.6 19.216 15.688 18.659 15.688 18.09C15.688 17.52 15.601 16.962 15.468 16.433L17.281 15.715L16.531 13.87L14.721 14.59C14.1464 13.6443 13.3527 12.8506 12.407 12.276L13.127 10.466L11.282 9.716L10.565 11.526C10.0233 11.3878 9.46701 11.3149 8.908 11.309C8.338 11.309 7.782 11.395 7.252 11.527L6.532 9.717L6.53 9.718ZM8.906 13.31C11.569 13.31 13.686 15.43 13.686 18.092C13.688 20.755 11.569 22.904 8.906 22.904C8.27386 22.9048 7.64777 22.7809 7.06359 22.5393C6.47942 22.2978 5.94863 21.9434 5.50164 21.4964C5.05465 21.0494 4.70023 20.5186 4.45868 19.9344C4.21714 19.3502 4.09321 18.7241 4.094 18.092C4.094 15.429 6.244 13.31 8.906 13.31Z" fill="black"/>
</svg>
