<svg width="22" height="22" viewBox="0 0 22 22" fill="none" xmlns="http://www.w3.org/2000/svg">
<path d="M13.939 6.90492L13.9391 6.90632C13.9509 7.02674 13.8629 7.13809 13.7343 7.15034L13.7322 7.15055C13.6236 7.16141 13.5016 7.06747 13.4892 6.94537C13.3545 5.48943 12.9346 4.38547 12.0244 3.66679C11.1305 2.96091 9.85163 2.69934 8.17739 2.69934H8.06148C6.21624 2.69934 4.83358 3.02104 3.92918 3.92544C3.02478 4.82984 2.70308 6.2125 2.70308 8.05775V13.8709C2.70308 15.7161 3.02478 17.0988 3.92918 18.0032C4.83358 18.9076 6.21624 19.2293 8.06148 19.2293H8.17739C9.8609 19.2293 11.1461 18.9632 12.0409 18.2438C12.949 17.5136 13.3627 16.3937 13.4888 14.9171C13.5091 14.7745 13.6224 14.6963 13.7343 14.7069L13.7342 14.7071L13.7448 14.7078C13.8601 14.7161 13.9558 14.8192 13.9473 14.9507C13.8014 16.6514 13.277 17.8026 12.3856 18.5404C11.4841 19.2865 10.1298 19.6751 8.1863 19.6751H8.0704C5.93285 19.6751 4.51297 19.2162 3.619 18.3223C2.72503 17.4283 2.2662 16.0084 2.2662 13.8709V8.05775C2.2662 5.9202 2.72503 4.50032 3.619 3.60635C4.51297 2.71238 5.93285 2.25355 8.0704 2.25355H8.1863C10.117 2.25355 11.4637 2.63566 12.3634 3.37012C13.2533 4.0965 13.7809 5.22967 13.939 6.90492Z" stroke="white" stroke-width="0.891582"/>
<path d="M8.28375 10.2956H18.4299C18.7955 10.2956 19.0986 10.5987 19.0986 10.9642C19.0986 11.3298 18.7955 11.6329 18.4299 11.6329H8.28375C7.9182 11.6329 7.61506 11.3298 7.61506 10.9642C7.61506 10.5987 7.9182 10.2956 8.28375 10.2956Z" fill="white"/>
<path d="M16.4415 7.30881C16.6109 7.30881 16.7803 7.37122 16.914 7.50496L19.9008 10.4918C20.1594 10.7503 20.1594 11.1783 19.9008 11.4368L16.914 14.4236C16.6555 14.6822 16.2275 14.6822 15.9689 14.4236C15.7104 14.1651 15.7104 13.7371 15.9689 13.4786L18.4832 10.9643L15.9689 8.45004C15.7104 8.19148 15.7104 7.76352 15.9689 7.50496C16.0938 7.37122 16.2721 7.30881 16.4415 7.30881Z" fill="white"/>
</svg>
