<svg width="157" height="158" viewBox="0 0 157 158" fill="none" xmlns="http://www.w3.org/2000/svg">
<g filter="url(#filter0_d_51_8718)">
<circle cx="78.5" cy="69.835" r="35.3548" stroke="#FF4F28" stroke-width="2.20968" shape-rendering="crispEdges"/>
</g>
<path d="M76.0128 69.4703C76.0128 69.2314 76.1077 69.0024 76.2766 68.8335C76.4455 68.6646 76.6746 68.5697 76.9134 68.5697H85.0184V62.7161C85.0184 60.915 83.1165 59.5642 81.4162 59.5642H72.8609C72.0252 59.5651 71.2241 59.8975 70.6332 60.4884C70.0422 61.0793 69.7099 61.8805 69.709 62.7161V76.2244C69.7099 77.0601 70.0422 77.8613 70.6332 78.4522C71.2241 79.0431 72.0252 79.3755 72.8609 79.3764H81.8664C82.7021 79.3755 83.5033 79.0431 84.0942 78.4522C84.6851 77.8613 85.0175 77.0601 85.0184 76.2244V70.3708H76.9134C76.6746 70.3708 76.4455 70.276 76.2766 70.1071C76.1077 69.9382 76.0128 69.7091 76.0128 69.4703ZM92.8594 68.8337L88.3566 64.3309C88.1863 64.1692 87.9596 64.0803 87.7248 64.0833C87.49 64.0864 87.2656 64.181 87.0995 64.347C86.9335 64.5131 86.8389 64.7375 86.8358 64.9723C86.8328 65.2071 86.9217 65.4338 87.0834 65.6041L90.0485 68.5697H85.0184V70.3708H90.0485L87.0834 73.3365C86.9963 73.4193 86.9266 73.5187 86.8785 73.6288C86.8304 73.739 86.8048 73.8576 86.8032 73.9778C86.8017 74.098 86.8242 74.2173 86.8695 74.3286C86.9148 74.44 86.9819 74.5411 87.0669 74.6261C87.1519 74.7111 87.2531 74.7782 87.3644 74.8235C87.4758 74.8688 87.5951 74.8914 87.7152 74.8898C87.8354 74.8883 87.9541 74.8627 88.0643 74.8146C88.1744 74.7664 88.2738 74.6968 88.3566 74.6096L92.8594 70.1069C93.0281 69.938 93.1229 69.709 93.1229 69.4703C93.1229 69.2315 93.0281 69.0026 92.8594 68.8337Z" fill="#FF4F28"/>
<defs>
<filter id="filter0_d_51_8718" x="0.0561638" y="0.23008" width="156.888" height="156.887" filterUnits="userSpaceOnUse" color-interpolation-filters="sRGB">
<feFlood flood-opacity="0" result="BackgroundImageFix"/>
<feColorMatrix in="SourceAlpha" type="matrix" values="0 0 0 0 0 0 0 0 0 0 0 0 0 0 0 0 0 0 127 0" result="hardAlpha"/>
<feOffset dy="8.83871"/>
<feGaussianBlur stdDeviation="20.9919"/>
<feComposite in2="hardAlpha" operator="out"/>
<feColorMatrix type="matrix" values="0 0 0 0 1 0 0 0 0 0 0 0 0 0 0 0 0 0 0.05 0"/>
<feBlend mode="normal" in2="BackgroundImageFix" result="effect1_dropShadow_51_8718"/>
<feBlend mode="normal" in="SourceGraphic" in2="effect1_dropShadow_51_8718" result="shape"/>
</filter>
</defs>
</svg>
