<svg width="22" height="21" viewBox="0 0 22 21" fill="none" xmlns="http://www.w3.org/2000/svg">
<path d="M12.3772 19.0761C12.1823 19.0761 11.9874 19.0422 11.8009 18.9744C11.1653 18.7371 10.7585 18.1439 10.7585 17.4659V11.9995H8.77533C8.13123 11.9995 7.57187 11.6351 7.30914 11.0503C7.04642 10.4655 7.14812 9.80449 7.57187 9.32141L13.9874 2.03291C14.4366 1.52441 15.1316 1.34644 15.7672 1.59221C16.4028 1.82951 16.8096 2.42276 16.8096 3.10076V8.56714H18.7928C19.4369 8.56714 19.9962 8.93156 20.2589 9.51634C20.5217 10.1011 20.42 10.7622 19.9962 11.2452L13.5806 18.5337C13.2671 18.8897 12.8264 19.0761 12.3772 19.0761ZM15.1824 2.75329C15.1062 2.75329 15.0129 2.77871 14.9366 2.87194L8.52106 10.1689C8.38546 10.3215 8.43633 10.474 8.46176 10.5333C8.48718 10.5927 8.57193 10.7367 8.77533 10.7367H11.3941C11.7416 10.7367 12.0297 11.0249 12.0297 11.3724V17.4744C12.0297 17.6862 12.1823 17.771 12.2501 17.7964C12.3179 17.8218 12.4874 17.8642 12.623 17.7032L19.0385 10.4062C19.1741 10.2537 19.1233 10.1011 19.0979 10.0418C19.0724 9.98246 18.9877 9.83839 18.7843 9.83839H16.1655C15.8181 9.83839 15.5299 9.55024 15.5299 9.20276V3.10076C15.5299 2.88889 15.3773 2.80414 15.3095 2.77871C15.2841 2.76176 15.2333 2.75329 15.1824 2.75329Z" fill="#64748B"/>
<path d="M8.07887 4.13478H2.14637C1.79889 4.13478 1.51074 3.84663 1.51074 3.49915C1.51074 3.15168 1.79889 2.86353 2.14637 2.86353H8.07887C8.42634 2.86353 8.71449 3.15168 8.71449 3.49915C8.71449 3.84663 8.42634 4.13478 8.07887 4.13478Z" fill="#64748B"/>
<path d="M7.23137 17.6946H2.14637C1.79889 17.6946 1.51074 17.4064 1.51074 17.059C1.51074 16.7115 1.79889 16.4233 2.14637 16.4233H7.23137C7.57884 16.4233 7.86699 16.7115 7.86699 17.059C7.86699 17.4064 7.57884 17.6946 7.23137 17.6946Z" fill="#64748B"/>
<path d="M4.68887 10.9146H2.14637C1.79889 10.9146 1.51074 10.6264 1.51074 10.2789C1.51074 9.93146 1.79889 9.64331 2.14637 9.64331H4.68887C5.03634 9.64331 5.32449 9.93146 5.32449 10.2789C5.32449 10.6264 5.03634 10.9146 4.68887 10.9146Z" fill="#64748B"/>
</svg>
