<svg width="21" height="21" viewBox="0 0 21 21" fill="none" xmlns="http://www.w3.org/2000/svg">
<path d="M13.3053 12.8384C12.8138 12.8384 12.2798 12.6774 11.7459 12.3469L10.6272 11.6689C10.5764 11.635 10.4238 11.635 10.373 11.6689L9.25425 12.3469C8.33895 12.9062 7.4406 12.991 6.72023 12.5842C6.0168 12.1858 5.62695 11.3892 5.62695 10.3468V4.37189C5.62695 2.30399 6.75413 1.16833 8.80508 1.16833H12.1951C14.246 1.16833 15.3732 2.30399 15.3732 4.37189V10.3468C15.3732 11.3977 14.9834 12.1943 14.2799 12.5842C13.9833 12.7537 13.6528 12.8384 13.3053 12.8384ZM10.5001 10.3722C10.7798 10.3722 11.0594 10.44 11.2883 10.5756L12.407 11.2536C12.907 11.5587 13.3646 11.635 13.6528 11.4739C13.9325 11.3129 14.0935 10.8976 14.0935 10.3383V4.37189C14.0935 3.01589 13.5257 2.43959 12.1866 2.43959H8.7966C7.45755 2.43959 6.88973 3.01589 6.88973 4.37189V10.3468C6.88973 10.9061 7.05075 11.3214 7.33043 11.4824C7.61858 11.6434 8.07623 11.5672 8.57625 11.2621L9.69495 10.5841C9.94073 10.44 10.2204 10.3722 10.5001 10.3722Z" fill="#64748B"/>
<path d="M13.0428 19.3896H7.95777C3.35585 19.3896 1.38965 17.4065 1.38965 12.7622V10.1942C1.38965 6.2449 2.81345 4.2448 6.00005 3.71087C6.33905 3.65155 6.66957 3.88885 6.7289 4.23632C6.78822 4.5838 6.55092 4.90585 6.20345 4.96517C3.65247 5.38892 2.65242 6.8551 2.65242 10.1942V12.7622C2.65242 16.6691 4.0847 18.1184 7.9493 18.1184H13.0343C16.8989 18.1184 18.3312 16.6691 18.3312 12.7622V10.1942C18.3312 6.80425 17.2972 5.33807 14.6361 4.93975C14.2886 4.8889 14.0513 4.56685 14.1021 4.21937C14.153 3.8719 14.475 3.6346 14.8225 3.68545C18.1278 4.177 19.6024 6.1771 19.6024 10.1942V12.7622C19.6109 17.4065 17.6447 19.3896 13.0428 19.3896Z" fill="#64748B"/>
</svg>
