<svg width="31" height="32" viewBox="0 0 31 32" fill="none" xmlns="http://www.w3.org/2000/svg">
<rect x="0.240234" y="0.619873" width="30.7601" height="30.7601" rx="15.38" fill="white"/>
<path d="M11.8914 21.0159L19.0826 13.8248L19.0826 20.1082C19.0826 20.6103 19.4946 21.0224 19.9968 21.0224C20.4989 21.0224 20.9045 20.6168 20.9045 20.1146L20.9045 11.6294C20.9045 11.1273 20.4989 10.7217 19.9968 10.7217L11.5116 10.7088C11.0094 10.7088 10.6038 11.1144 10.6038 11.6165C10.6038 12.1187 11.0094 12.5243 11.5116 12.5243L17.795 12.5372L10.6038 19.7283C10.2497 20.0824 10.2497 20.6618 10.6038 21.0159C10.9579 21.37 11.5373 21.37 11.8914 21.0159Z" fill="black"/>
</svg>
