<svg width="22" height="24" viewBox="0 0 22 24" fill="none" xmlns="http://www.w3.org/2000/svg">
<path d="M9.98613 2.90503C7.90042 2.90503 5.90013 3.73357 4.42531 5.2084C2.95049 6.68322 2.12194 8.6835 2.12194 10.7692V15.4694L1.19528 16.396C1.01203 16.5793 0.887244 16.8129 0.836693 17.0671C0.786143 17.3213 0.812099 17.5848 0.911279 17.8242C1.01046 18.0637 1.17841 18.2684 1.3939 18.4124C1.6094 18.5564 1.86275 18.6333 2.12194 18.6334H17.8503C18.1095 18.6333 18.3629 18.5564 18.5784 18.4124C18.7938 18.2684 18.9618 18.0637 19.061 17.8242C19.1602 17.5848 19.1861 17.3213 19.1356 17.0671C19.085 16.8129 18.9602 16.5793 18.777 16.396L17.8503 15.4694V10.7692C17.8503 8.6835 17.0218 6.68322 15.5469 5.2084C14.0721 3.73357 12.0718 2.90503 9.98613 2.90503V2.90503ZM9.98613 23.8762C8.94327 23.8762 7.94313 23.4619 7.20572 22.7245C6.46831 21.9871 6.05403 20.987 6.05403 19.9441H13.9182C13.9182 20.987 13.5039 21.9871 12.7665 22.7245C12.0291 23.4619 11.029 23.8762 9.98613 23.8762Z" fill="#383838"/>
<circle cx="17.6317" cy="5.09043" r="4.36899" fill="#FFCA61"/>
</svg>
