<svg width="20" height="22" viewBox="0 0 20 22" fill="none" xmlns="http://www.w3.org/2000/svg">
<path d="M9.98613 0.905029C7.90042 0.905029 5.90013 1.73357 4.42531 3.2084C2.95049 4.68322 2.12194 6.6835 2.12194 8.76921V13.4694L1.19528 14.396C1.01203 14.5793 0.887244 14.8129 0.836693 15.0671C0.786143 15.3213 0.812099 15.5848 0.911279 15.8242C1.01046 16.0637 1.17841 16.2684 1.3939 16.4124C1.6094 16.5564 1.86275 16.6333 2.12194 16.6334H17.8503C18.1095 16.6333 18.3629 16.5564 18.5784 16.4124C18.7938 16.2684 18.9618 16.0637 19.061 15.8242C19.1602 15.5848 19.1861 15.3213 19.1356 15.0671C19.085 14.8129 18.9602 14.5793 18.777 14.396L17.8503 13.4694V8.76921C17.8503 6.6835 17.0218 4.68322 15.5469 3.2084C14.0721 1.73357 12.0718 0.905029 9.98613 0.905029V0.905029ZM9.98613 21.8762C8.94327 21.8762 7.94313 21.4619 7.20572 20.7245C6.46831 19.9871 6.05403 18.987 6.05403 17.9441H13.9182C13.9182 18.987 13.5039 19.9871 12.7665 20.7245C12.0291 21.4619 11.029 21.8762 9.98613 21.8762Z" fill="#383838"/>
</svg>
