<svg width="19" height="19" viewBox="0 0 19 19" fill="none" xmlns="http://www.w3.org/2000/svg">
<path d="M12.9818 8.81406H5.66055C4.85186 8.81406 4.19629 9.46963 4.19629 10.2783V14.6711C4.19629 15.4798 4.85186 16.1354 5.66055 16.1354H12.9818C13.7905 16.1354 14.4461 15.4798 14.4461 14.6711V10.2783C14.4461 9.46963 13.7905 8.81406 12.9818 8.81406Z" stroke="white" stroke-width="1.31783" stroke-linecap="round" stroke-linejoin="round"/>
<path d="M9.321 13.207C9.72534 13.207 10.0531 12.8792 10.0531 12.4749C10.0531 12.0705 9.72534 11.7427 9.321 11.7427C8.91665 11.7427 8.58887 12.0705 8.58887 12.4749C8.58887 12.8792 8.91665 13.207 9.321 13.207Z" stroke="white" stroke-width="1.75711" stroke-linecap="round" stroke-linejoin="round"/>
<path d="M6.39258 8.81421V5.88569C6.39258 5.109 6.70112 4.36412 7.25032 3.81491C7.79953 3.26571 8.54441 2.95717 9.3211 2.95717C10.0978 2.95717 10.8427 3.26571 11.3919 3.81491C11.9411 4.36412 12.2496 5.109 12.2496 5.88569V8.81421" stroke="white" stroke-width="1.31783" stroke-linecap="round" stroke-linejoin="round"/>
</svg>
