<svg width="20" height="17" viewBox="0 0 20 17" fill="none" xmlns="http://www.w3.org/2000/svg">
<path d="M12.9992 8.43386C12.9992 10.2115 11.5627 11.648 9.78506 11.648C8.00741 11.648 6.57092 10.2115 6.57092 8.43386C6.57092 6.65621 8.00741 5.21973 9.78506 5.21973C11.5627 5.21973 12.9992 6.65621 12.9992 8.43386Z" stroke="white" stroke-width="1.5" stroke-linecap="round" stroke-linejoin="round"/>
<path d="M9.785 15.8586C12.9542 15.8586 15.908 13.9912 17.964 10.7591C18.772 9.49321 18.772 7.36542 17.964 6.09952C15.908 2.86743 12.9542 1 9.785 1C6.61576 1 3.66199 2.86743 1.60602 6.09952C0.797994 7.36542 0.797994 9.49321 1.60602 10.7591C3.66199 13.9912 6.61576 15.8586 9.785 15.8586Z" stroke="white" stroke-width="1.5" stroke-linecap="round" stroke-linejoin="round"/>
</svg>
