<svg width="19" height="19" viewBox="0 0 19 19" fill="none" xmlns="http://www.w3.org/2000/svg">
<path d="M2.86816 2.95715L16.0465 16.1355" stroke="white" stroke-width="1.31783" stroke-linecap="round" stroke-linejoin="round"/>
<path d="M8.42151 8.51161C8.14676 8.78617 7.99232 9.15863 7.99219 9.54706C7.99205 9.93548 8.14622 10.3081 8.42078 10.5828C8.69534 10.8576 9.0678 11.012 9.45623 11.0121C9.84465 11.0123 10.2172 10.8581 10.492 10.5835" stroke="white" stroke-width="1.31783" stroke-linecap="round" stroke-linejoin="round"/>
<path d="M7.52739 4.68854C8.15513 4.50896 8.8051 4.419 9.45802 4.42131C12.3865 4.42131 14.8267 6.12937 16.7793 9.54622C16.2097 10.5426 15.5991 11.3941 14.9468 12.0999M13.38 13.4624C12.1859 14.2677 10.8798 14.6711 9.45802 14.6711C6.5295 14.6711 4.08931 12.9631 2.13672 9.54622C3.139 7.79277 4.26941 6.48957 5.52794 5.63591" stroke="white" stroke-width="1.31783" stroke-linecap="round" stroke-linejoin="round"/>
</svg>
