<svg width="19" height="18" viewBox="0 0 19 18" fill="none" xmlns="http://www.w3.org/2000/svg">
<path d="M9.20281 8.00941L9.25409 8.01122L9.28707 8.00462C9.29325 8.00439 9.30205 8.00419 9.31343 8.00419C9.34403 8.00419 9.38221 8.00557 9.41884 8.00839L9.44574 8.01046L9.47268 8.00922C11.1436 7.9325 12.4531 6.55966 12.4616 4.87839H12.4616V4.87617C12.4616 3.14734 11.0496 1.73533 9.32075 1.73533C7.59192 1.73533 6.17991 3.14734 6.17991 4.87617C6.17991 6.57725 7.50964 7.94986 9.20281 8.00941ZM9.43789 8.22932H9.43776H9.43763H9.43751H9.43738H9.43725H9.43712H9.43699H9.43687H9.43674H9.43661H9.43649H9.43636H9.43623H9.43611H9.43598H9.43585H9.43573H9.4356H9.43548H9.43535H9.43522H9.4351H9.43497H9.43485H9.43472H9.4346H9.43447H9.43435H9.43423H9.4341H9.43398H9.43385H9.43373H9.43361H9.43348H9.43336H9.43324H9.43312H9.43299H9.43287H9.43275H9.43263H9.4325H9.43238H9.43226H9.43214H9.43202H9.43189H9.43177H9.43165H9.43153H9.43141H9.43129H9.43117H9.43105H9.43093H9.43081H9.43069H9.43057H9.43045H9.43033H9.43021H9.43009H9.42997H9.42985H9.42973H9.42961H9.42949H9.42937H9.42926H9.42914H9.42902H9.4289H9.42878H9.42866H9.42855H9.42843H9.42831H9.42819H9.42808H9.42796H9.42784H9.42772H9.42761H9.42749H9.42737H9.42726H9.42714H9.42702H9.42691H9.42679H9.42668H9.42656H9.42644H9.42633H9.42621H9.4261H9.42598H9.42587H9.42575H9.42563H9.42552H9.42541H9.42529H9.42518H9.42506H9.42495H9.42483H9.42472H9.4246H9.42449H9.42437H9.42426H9.42415H9.42403H9.42392H9.42381H9.42369H9.42358H9.42347H9.42335H9.42324H9.42313H9.42301H9.4229H9.42279H9.42267H9.42256H9.42245H9.42234H9.42222H9.42211H9.422H9.42189H9.42178H9.42166H9.42155H9.42144H9.42133H9.42122H9.4211H9.42099H9.42088H9.42077H9.42066H9.42055H9.42044H9.42033H9.42021H9.4201H9.41999H9.41988H9.41977H9.41966H9.41955H9.41944H9.41933H9.41922H9.41911H9.419H9.41889H9.41878H9.41867H9.41856H9.41845H9.41834H9.41823H9.41812H9.41801H9.4179H9.41779H9.41768H9.41757H9.41746H9.41735H9.41724H9.41713H9.41702H9.41691H9.4168H9.4167H9.41659H9.41648H9.41637H9.41626H9.41615H9.41604H9.41593H9.41582H9.41572H9.41561H9.4155H9.41539H9.41528H9.41517H9.41506H9.41496H9.41485H9.41474H9.41463H9.41452H9.41441H9.41431H9.4142H9.41409H9.41398H9.41387H9.41377H9.41366H9.41355H9.41344H9.41333H9.41323H9.41312H9.41301H9.4129H9.41279H9.41269H9.41258H9.41247H9.41236H9.41226H9.41215H9.41204H9.41193H9.41183H9.41172H9.41161H9.41154C9.34915 8.22191 9.28558 8.22242 9.22747 8.22834C7.35571 8.15331 5.96027 6.68264 5.96027 4.87617C5.96027 3.02489 7.46947 1.51569 9.32075 1.51569C11.1718 1.51569 12.6808 3.02447 12.6812 4.87541C12.6743 6.69629 11.2526 8.16764 9.45256 8.22932H9.45252H9.45248H9.45243H9.45239H9.45235H9.4523H9.45226H9.45222H9.45218H9.45213H9.45209H9.45205H9.452H9.45196H9.45192H9.45188H9.45183H9.45179H9.45175H9.4517H9.45166H9.45162H9.45158H9.45153H9.45149H9.45145H9.4514H9.45136H9.45132H9.45127H9.45123H9.45119H9.45115H9.4511H9.45106H9.45102H9.45097H9.45093H9.45089H9.45085H9.4508H9.45076H9.45072H9.45067H9.45063H9.45059H9.45055H9.4505H9.45046H9.45042H9.45037H9.45033H9.45029H9.45025H9.4502H9.45016H9.45012H9.45007H9.45003H9.44999H9.44995H9.4499H9.44986H9.44982H9.44977H9.44973H9.44969H9.44964H9.4496H9.44956H9.44952H9.44947H9.44943H9.44939H9.44934H9.4493H9.44926H9.44922H9.44917H9.44913H9.44909H9.44904H9.449H9.44896H9.44892H9.44887H9.44883H9.44879H9.44874H9.4487H9.44866H9.44862H9.44857H9.44853H9.44849H9.44844H9.4484H9.44836H9.44831H9.44827H9.44823H9.44819H9.44814H9.4481H9.44806H9.44801H9.44797H9.44793H9.44789H9.44784H9.4478H9.44776H9.44771H9.44767H9.44763H9.44759H9.44754H9.4475H9.44746H9.44741H9.44737H9.44733H9.44729H9.44724H9.4472H9.44716H9.44711H9.44707H9.44703H9.44699H9.44694H9.4469H9.44686H9.44681H9.44677H9.44673H9.44668H9.44664H9.4466H9.44656H9.44651H9.44647H9.44643H9.44638H9.44634H9.4463H9.44626H9.44621H9.44617H9.44613H9.44608H9.44604H9.446H9.44596H9.44591H9.44587H9.44583H9.44578H9.44574H9.4457H9.44566H9.44561H9.44557H9.44553H9.44548H9.44544H9.4454H9.44536H9.44531H9.44527H9.44523H9.44518H9.44514H9.4451H9.44505H9.44501H9.44497H9.44493H9.44488H9.44484H9.4448H9.44475H9.44471H9.44467H9.44463H9.44458H9.44454H9.4445H9.44445H9.44441H9.44437H9.44433H9.44428H9.44424H9.4442H9.44415H9.44411H9.44407H9.44403H9.44398H9.44394H9.4439H9.44385H9.44381H9.44377H9.44372H9.44368H9.44364H9.4436H9.44355H9.44351H9.44347H9.44342H9.44338H9.44334H9.4433H9.44325H9.44321H9.44317H9.44312H9.44308H9.44304H9.443H9.44295H9.44291H9.44287H9.44282H9.44278H9.44274H9.4427H9.44265H9.44261H9.44257H9.44252H9.44248H9.44244H9.4424H9.44235H9.44231H9.44227H9.44222H9.44218H9.44214H9.44209H9.44205H9.44201H9.44197H9.44192H9.44188H9.44184H9.44179H9.44175H9.44171H9.44167H9.44162H9.44158H9.44154H9.44149H9.44145H9.44141H9.44137H9.44132H9.44128H9.44124H9.44119H9.44115H9.44111H9.44107H9.44102H9.44098H9.44094H9.44089H9.44085H9.44081H9.44076H9.44072H9.44068H9.44064H9.44059H9.44055H9.44051H9.44046H9.44042H9.44038H9.44034H9.44029H9.44025H9.44021H9.44016H9.44012H9.44008H9.44004H9.43999H9.43995H9.43991H9.43986H9.43982H9.43978H9.43974H9.43969H9.43965H9.43961H9.43956H9.43952H9.43948H9.43944H9.43939H9.43935H9.43931H9.43926H9.43922H9.43918H9.43913H9.43909H9.43905H9.43901H9.43896H9.43892H9.43888H9.43883H9.43879H9.43875H9.43871H9.43866H9.43862H9.43858H9.43853H9.43849H9.43845H9.43841H9.43836H9.43832H9.43828H9.43823H9.43819H9.43815H9.43811H9.43806H9.43802H9.43798H9.43793H9.43789Z" fill="white" stroke="white" stroke-width="0.878556"/>
<path d="M9.44505 16.6705C8.01008 16.6705 6.56778 16.3044 5.47691 15.5723C4.45925 14.8988 3.90283 13.9763 3.90283 12.9733C3.90283 11.9702 4.45925 11.0404 5.47691 10.3595C7.6733 8.90261 11.2315 8.90261 13.4132 10.3595C14.4235 11.0331 14.9873 11.9556 14.9873 12.9586C14.9873 13.9616 14.4309 14.8914 13.4132 15.5723C12.315 16.3044 10.88 16.6705 9.44505 16.6705ZM6.08458 11.282C5.38173 11.7506 5.00103 12.3509 5.00103 12.9806C5.00103 13.6029 5.38906 14.2032 6.08458 14.6645C7.90758 15.8871 10.9825 15.8871 12.8055 14.6645C13.5084 14.1959 13.8891 13.5956 13.8891 12.9659C13.8891 12.3436 13.5011 11.7433 12.8055 11.282C10.9825 10.0667 7.90758 10.0667 6.08458 11.282Z" fill="white"/>
</svg>
