<svg width="19" height="19" viewBox="0 0 19 19" fill="none" xmlns="http://www.w3.org/2000/svg">
<path d="M13.2214 15.0257H5.77969C5.44719 15.0257 5.07511 14.7644 4.96427 14.4477L1.68677 5.28025C1.21969 3.96608 1.76594 3.56233 2.89011 4.36983L5.97761 6.57858C6.49219 6.93483 7.07802 6.75275 7.29969 6.17483L8.69302 2.46191C9.13636 1.27441 9.87261 1.27441 10.3159 2.46191L11.7093 6.17483C11.9309 6.75275 12.5168 6.93483 13.0234 6.57858L15.9209 4.51233C17.1559 3.62566 17.7497 4.07691 17.243 5.50983L14.0447 14.4636C13.9259 14.7644 13.5539 15.0257 13.2214 15.0257Z" stroke="black" stroke-width="1.5" stroke-linecap="round" stroke-linejoin="round"/>
<path d="M5.14551 17.4165H13.8538" stroke="black" stroke-width="1.5" stroke-linecap="round" stroke-linejoin="round"/>
<path d="M7.52051 11.0835H11.4788" stroke="black" stroke-width="1.5" stroke-linecap="round" stroke-linejoin="round"/>
</svg>
