<svg width="17" height="16" viewBox="0 0 17 16" fill="none" xmlns="http://www.w3.org/2000/svg">
<path d="M12.227 15.9986H4.16654C3.83607 15.9986 3.56201 15.7246 3.56201 15.3941C3.56201 15.0636 3.83607 14.7896 4.16654 14.7896H12.227C12.5574 14.7896 12.8315 15.0636 12.8315 15.3941C12.8315 15.7246 12.5574 15.9986 12.227 15.9986Z" fill="white"/>
<path d="M14.9274 2.7142L11.7032 5.01948C11.276 5.32577 10.6634 5.14038 10.478 4.6487L8.95458 0.586245C8.69665 -0.115011 7.70522 -0.115011 7.44729 0.586245L5.91581 4.64064C5.73042 5.14038 5.12588 5.32577 4.69868 5.01142L1.47451 2.70614C0.829679 2.25475 -0.024726 2.89153 0.241268 3.64115L3.5944 13.0315C3.70725 13.354 4.01355 13.5635 4.35208 13.5635H12.0337C12.3722 13.5635 12.6785 13.3459 12.7913 13.0315L16.1445 3.64115C16.4185 2.89153 15.5641 2.25475 14.9274 2.7142ZM10.212 10.154H6.1818C5.85132 10.154 5.57727 9.87991 5.57727 9.54944C5.57727 9.21896 5.85132 8.9449 6.1818 8.9449H10.212C10.5425 8.9449 10.8165 9.21896 10.8165 9.54944C10.8165 9.87991 10.5425 10.154 10.212 10.154Z" fill="white"/>
</svg>
