<svg width="26" height="26" viewBox="0 0 26 26" fill="none" xmlns="http://www.w3.org/2000/svg">
<path d="M5.61538 13.0006V8.14543C5.6298 7.19108 5.8324 6.24895 6.21158 5.37302C6.59075 4.49709 7.13905 3.70459 7.82504 3.04092C8.51104 2.37725 9.32126 1.85546 10.2093 1.50544C11.0973 1.15542 12.0456 0.984056 13 1.00117C13.9544 0.984056 14.9027 1.15542 15.7907 1.50544C16.6787 1.85546 17.489 2.37725 18.175 3.04092C18.861 3.70459 19.4092 4.49709 19.7884 5.37302C20.1676 6.24895 20.3702 7.19108 20.3846 8.14543V13.0006M16.6923 22.6924C17.6716 22.6924 18.6107 22.3034 19.3032 21.611C19.9956 20.9186 20.3846 19.9795 20.3846 19.0003V14.8466M16.6923 22.6924C16.6923 23.3044 16.4492 23.8914 16.0164 24.3241C15.5836 24.7569 14.9967 25 14.3846 25H11.6154C11.0033 25 10.4164 24.7569 9.9836 24.3241C9.55082 23.8914 9.30769 23.3044 9.30769 22.6924C9.30769 22.0804 9.55082 21.4935 9.9836 21.0607C10.4164 20.628 11.0033 20.3848 11.6154 20.3848H14.3846C14.9967 20.3848 15.5836 20.628 16.0164 21.0607C16.4492 21.4935 16.6923 22.0804 16.6923 22.6924ZM2.84615 10.2315H4.69231C4.93712 10.2315 5.17191 10.3287 5.34502 10.5018C5.51813 10.6749 5.61538 10.9097 5.61538 11.1545V16.6927C5.61538 16.9375 5.51813 17.1723 5.34502 17.3454C5.17191 17.5185 4.93712 17.6157 4.69231 17.6157H2.84615C2.35652 17.6157 1.88695 17.4212 1.54073 17.075C1.1945 16.7288 1 16.2593 1 15.7697V12.0776C1 11.5879 1.1945 11.1184 1.54073 10.7722C1.88695 10.426 2.35652 10.2315 2.84615 10.2315ZM23.1538 17.6157H21.3077C21.0629 17.6157 20.8281 17.5185 20.655 17.3454C20.4819 17.1723 20.3846 16.9375 20.3846 16.6927V11.1545C20.3846 10.9097 20.4819 10.6749 20.655 10.5018C20.8281 10.3287 21.0629 10.2315 21.3077 10.2315H23.1538C23.6435 10.2315 24.1131 10.426 24.4593 10.7722C24.8055 11.1184 25 11.5879 25 12.0776V15.7697C25 16.2593 24.8055 16.7288 24.4593 17.075C24.1131 17.4212 23.6435 17.6157 23.1538 17.6157Z" stroke="#FF61DA" stroke-linecap="round" stroke-linejoin="round"/>
</svg>
