<svg width="24" height="24" viewBox="0 0 24 24" fill="none" xmlns="http://www.w3.org/2000/svg">
<path d="M1.51172 12C1.51172 6.20803 6.20803 1.51172 12 1.51172C17.792 1.51172 22.4883 6.20803 22.4883 12C22.4883 17.792 17.792 22.4883 12 22.4883C6.20803 22.4883 1.51172 17.792 1.51172 12ZM3.26953 12C3.26953 16.8205 7.17947 20.7305 12 20.7305C16.8205 20.7305 20.7305 16.8205 20.7305 12C20.7305 7.17947 16.8205 3.26953 12 3.26953C7.17947 3.26953 3.26953 7.17947 3.26953 12Z" fill="white" stroke="white" stroke-width="0.0234375"/>
<path d="M14.6079 7.43147L14.6079 7.43148C15.3368 8.06924 15.7383 8.92623 15.7359 9.84372V9.84375C15.7359 11.193 14.8465 12.4078 13.4677 12.9383L13.4677 12.9383C13.2532 13.0211 13.0687 13.1666 12.9382 13.3559C12.8076 13.5451 12.7372 13.7693 12.7359 13.9992V13.9992V14.5312C12.7359 14.6279 12.6568 14.707 12.5602 14.707H11.4352C11.3385 14.707 11.2594 14.6279 11.2594 14.5312V14.0273C11.2594 13.4882 11.4181 12.9562 11.7237 12.5129C12.0247 12.0789 12.4447 11.7476 12.9393 11.5586L12.9394 11.5586C13.7421 11.2502 14.2617 10.5785 14.2617 9.84375C14.2617 8.80177 13.2442 7.95703 12 7.95703C10.7558 7.95703 9.73828 8.80177 9.73828 9.84375V10.0219C9.73828 10.1185 9.65915 10.1977 9.5625 10.1977H8.4375C8.34085 10.1977 8.26172 10.1185 8.26172 10.0219V9.84375C8.26172 8.92624 8.66323 8.06923 9.39209 7.43148C10.093 6.81938 11.0183 6.48047 12 6.48047C12.9817 6.48047 13.907 6.81705 14.6079 7.43147ZM13.4719 12.9492C14.8547 12.4172 15.7477 11.1984 15.7477 9.84375L11.7141 12.5062C11.407 12.9516 11.2477 13.4859 11.2477 14.0273V14.5312C11.2477 14.6344 11.332 14.7188 11.4352 14.7188H12.5602C12.6633 14.7188 12.7477 14.6344 12.7477 14.5312V13.9992C12.7489 13.7717 12.8186 13.5498 12.9478 13.3625C13.077 13.1752 13.2596 13.0312 13.4719 12.9492ZM11.3454 17.8109C11.1718 17.6373 11.0742 17.4018 11.0742 17.1562C11.0742 16.9107 11.1718 16.6752 11.3454 16.5016C11.519 16.328 11.7545 16.2305 12 16.2305C12.2455 16.2305 12.481 16.328 12.6546 16.5016C12.8282 16.6752 12.9258 16.9107 12.9258 17.1562C12.9258 17.4018 12.8282 17.6373 12.6546 17.8109C12.481 17.9845 12.2455 18.082 12 18.082C11.7545 18.082 11.519 17.9845 11.3454 17.8109Z" fill="white" stroke="white" stroke-width="0.0234375"/>
</svg>
