<svg width="29" height="29" viewBox="0 0 29 29" fill="none" xmlns="http://www.w3.org/2000/svg">
<circle cx="14.25" cy="14.25" r="14.25" fill="white"/>
<path d="M18.0137 9.37036C19.4303 10.3549 20.4078 11.9204 20.6062 13.7266" stroke="#292D32" stroke-width="1.0625" stroke-linecap="round" stroke-linejoin="round"/>
<path d="M8.47266 13.7623C8.65682 11.9631 9.62016 10.3977 11.0227 9.40601" stroke="#292D32" stroke-width="1.0625" stroke-linecap="round" stroke-linejoin="round"/>
<path d="M11.8018 19.8325C12.6234 20.2504 13.5584 20.4842 14.543 20.4842C15.4922 20.4842 16.3847 20.2717 17.1851 19.8821" stroke="#292D32" stroke-width="1.0625" stroke-linecap="round" stroke-linejoin="round"/>
<path d="M14.5424 10.4542C15.63 10.4542 16.5116 9.57258 16.5116 8.48504C16.5116 7.3975 15.63 6.51587 14.5424 6.51587C13.4549 6.51587 12.5732 7.3975 12.5732 8.48504C12.5732 9.57258 13.4549 10.4542 14.5424 10.4542Z" stroke="#292D32" stroke-width="1.0625" stroke-linecap="round" stroke-linejoin="round"/>
<path d="M9.42132 19.11C10.5089 19.11 11.3905 18.2283 11.3905 17.1408C11.3905 16.0533 10.5089 15.1716 9.42132 15.1716C8.33377 15.1716 7.45215 16.0533 7.45215 17.1408C7.45215 18.2283 8.33377 19.11 9.42132 19.11Z" stroke="#292D32" stroke-width="1.0625" stroke-linecap="round" stroke-linejoin="round"/>
<path d="M19.5785 19.11C20.6661 19.11 21.5477 18.2283 21.5477 17.1408C21.5477 16.0533 20.6661 15.1716 19.5785 15.1716C18.491 15.1716 17.6094 16.0533 17.6094 17.1408C17.6094 18.2283 18.491 19.11 19.5785 19.11Z" stroke="#292D32" stroke-width="1.0625" stroke-linecap="round" stroke-linejoin="round"/>
</svg>
