<svg width="20" height="20" viewBox="0 0 20 20" fill="none" xmlns="http://www.w3.org/2000/svg">
<path d="M12.5 16.125L17.45 11.175C17.6333 10.9917 17.8667 10.9 18.15 10.9C18.4333 10.9 18.6667 10.9917 18.85 11.175C19.0333 11.3583 19.125 11.5917 19.125 11.875C19.125 12.1583 19.0333 12.3917 18.85 12.575L13.2 18.225C13 18.425 12.7667 18.525 12.5 18.525C12.2333 18.525 12 18.425 11.8 18.225L8.95 15.375C8.76667 15.1917 8.675 14.9583 8.675 14.675C8.675 14.3917 8.76667 14.1583 8.95 13.975C9.13333 13.7917 9.36667 13.7 9.65 13.7C9.93333 13.7 10.1667 13.7917 10.35 13.975L12.5 16.125ZM2 20C1.45 20 0.979333 19.8043 0.588 19.413C0.196667 19.0217 0.000666667 18.5507 0 18V4C0 3.45 0.196 2.97933 0.588 2.588C0.98 2.19667 1.45067 2.00067 2 2H6.175C6.35833 1.41667 6.71667 0.937667 7.25 0.563C7.78333 0.188333 8.36667 0.000666667 9 0C9.66667 0 10.2627 0.187667 10.788 0.563C11.3133 0.938333 11.6673 1.41733 11.85 2H16C16.55 2 17.021 2.196 17.413 2.588C17.805 2.98 18.0007 3.45067 18 4V8C18 8.28333 17.904 8.521 17.712 8.713C17.52 8.905 17.2827 9.00067 17 9C16.7173 8.99933 16.48 8.90333 16.288 8.712C16.096 8.52067 16 8.28333 16 8V4H14V6C14 6.28333 13.904 6.521 13.712 6.713C13.52 6.905 13.2827 7.00067 13 7H5C4.71667 7 4.47933 6.904 4.288 6.712C4.09667 6.52 4.00067 6.28267 4 6V4H2V18H7C7.28333 18 7.521 18.096 7.713 18.288C7.905 18.48 8.00067 18.7173 8 19C7.99933 19.2827 7.90333 19.5203 7.712 19.713C7.52067 19.9057 7.28333 20.0013 7 20H2ZM9 4C9.28333 4 9.521 3.904 9.713 3.712C9.905 3.52 10.0007 3.28267 10 3C9.99933 2.71733 9.90333 2.48 9.712 2.288C9.52067 2.096 9.28333 2 9 2C8.71667 2 8.47933 2.096 8.288 2.288C8.09667 2.48 8.00067 2.71733 8 3C7.99933 3.28267 8.09533 3.52033 8.288 3.713C8.48067 3.90567 8.718 4.00133 9 4Z" fill="black"/>
</svg>
