<svg width="119" height="119" viewBox="0 0 119 119" fill="none" xmlns="http://www.w3.org/2000/svg">
<path d="M106.893 59.3851C106.893 85.5739 85.5733 106.893 59.3845 106.893C33.1956 106.893 11.8764 85.5739 11.8764 59.3851C11.8764 33.1962 33.1957 11.877 59.3845 11.877C85.5733 11.877 106.893 33.1963 106.893 59.3851ZM118.77 59.3851C118.77 26.6045 92.165 -1.16292e-06 59.3845 -2.5958e-06C26.6039 -4.02869e-06 -0.000601978 26.6045 -0.000603411 59.3851C-0.000604844 92.1656 26.6039 118.77 59.3845 118.77C92.165 118.77 118.77 92.1656 118.77 59.3851Z" fill="white"/>
<path d="M47.5 35.6318L23.746 59.3859L47.5 83.1399L47.5 35.6318Z" fill="white"/>
<path d="M71.2598 83.1396L95.0138 59.3856L71.2598 35.6316L71.2598 83.1396Z" fill="white"/>
</svg>
