<svg width="18" height="18" viewBox="0 0 18 18" fill="none" xmlns="http://www.w3.org/2000/svg">
<path fill-rule="evenodd" clip-rule="evenodd" d="M7.94252 8.97711L7.94363 9.2342C7.95246 10.2539 8.01393 11.1637 8.11994 11.7402C8.11994 11.7506 8.23557 12.3225 8.30923 12.5128C8.42487 12.7879 8.63396 13.0214 8.89613 13.1694C9.10601 13.275 9.3262 13.3285 9.55668 13.3285C9.73786 13.3201 10.0367 13.229 10.2499 13.1525L10.4271 13.0846C11.6009 12.6184 13.8447 11.0948 14.7041 10.1631L14.7674 10.098L15.0502 9.79285C15.2284 9.55933 15.3227 9.27382 15.3227 8.96671C15.3227 8.6916 15.2387 8.41649 15.0708 8.19416C15.0205 8.12213 14.9396 8.02972 14.8675 7.95164L14.5923 7.66355C13.6452 6.70397 11.5946 5.35798 10.5317 4.912C10.5317 4.9024 9.87112 4.62649 9.55668 4.61609H9.5147C9.03236 4.61609 8.58169 4.8912 8.35121 5.33586C8.28824 5.45742 8.22785 5.69555 8.18191 5.90468L8.09934 6.29956C8.00509 6.93456 7.94252 7.90865 7.94252 8.97711ZM3.34532 7.86996C2.74259 7.86996 2.25391 8.36341 2.25391 8.97201C2.25391 9.58062 2.74259 10.0741 3.34532 10.0741L6.0311 9.83654C6.50394 9.83654 6.88729 9.45026 6.88729 8.97201C6.88729 8.49456 6.50394 8.10749 6.0311 8.10749L3.34532 7.86996Z" fill="white"/>
</svg>
