<svg width="25" height="25" viewBox="0 0 25 25" fill="none" xmlns="http://www.w3.org/2000/svg">
<path d="M15.8597 6.05888L17.2697 8.87888C17.4597 9.26888 17.9697 9.63888 18.3997 9.71888L20.9497 10.1389C22.5797 10.4089 22.9597 11.5889 21.7897 12.7689L19.7997 14.7589C19.4697 15.0889 19.2797 15.7389 19.3897 16.2089L19.9597 18.6689C20.4097 20.6089 19.3697 21.3689 17.6597 20.3489L15.2697 18.9289C14.8397 18.6689 14.1197 18.6689 13.6897 18.9289L11.2997 20.3489C9.58966 21.3589 8.54968 20.6089 8.99968 18.6689L9.56968 16.2089C9.67968 15.7489 9.48968 15.0989 9.15968 14.7589L7.16969 12.7689C5.99969 11.5989 6.37969 10.4189 8.00969 10.1389L10.5597 9.71888C10.9897 9.64888 11.4997 9.26888 11.6897 8.87888L13.0997 6.05888C13.8497 4.52888 15.0897 4.52888 15.8597 6.05888Z" fill="white"/>
<path opacity="0.4" d="M8.46973 6.59888H2.46973C2.05973 6.59888 1.71973 6.25888 1.71973 5.84888C1.71973 5.43888 2.05973 5.09888 2.46973 5.09888H8.46973C8.87973 5.09888 9.21973 5.43888 9.21973 5.84888C9.21973 6.25888 8.87973 6.59888 8.46973 6.59888Z" fill="white"/>
<path opacity="0.4" d="M5.46973 20.5989H2.46973C2.05973 20.5989 1.71973 20.2589 1.71973 19.8489C1.71973 19.4389 2.05973 19.0989 2.46973 19.0989H5.46973C5.87973 19.0989 6.21973 19.4389 6.21973 19.8489C6.21973 20.2589 5.87973 20.5989 5.46973 20.5989Z" fill="white"/>
<path opacity="0.4" d="M3.46973 13.5989H2.46973C2.05973 13.5989 1.71973 13.2589 1.71973 12.8489C1.71973 12.4389 2.05973 12.0989 2.46973 12.0989H3.46973C3.87973 12.0989 4.21973 12.4389 4.21973 12.8489C4.21973 13.2589 3.87973 13.5989 3.46973 13.5989Z" fill="white"/>
</svg>
