<svg width="35" height="34" viewBox="0 0 35 34" fill="none" xmlns="http://www.w3.org/2000/svg">
<path d="M25.7417 31.8045C24.9982 31.8045 24.0442 31.566 22.8517 30.8645L18.657 28.3814C18.2221 28.1289 17.3803 28.1289 16.9595 28.3814L12.7507 30.8645C10.2676 32.3376 8.80854 31.7484 8.14917 31.2714C7.50383 30.7944 6.49373 29.5739 7.1531 26.768L8.14917 22.4611C8.2614 22.0122 8.03693 21.2406 7.70023 20.9039L4.22101 17.4246C2.4814 15.685 2.62169 14.1979 2.86018 13.4684C3.09868 12.7389 3.85625 11.4482 6.26926 11.0414L10.7446 10.2978C11.1654 10.2277 11.7687 9.77876 11.9511 9.39997L14.4342 4.44768C15.5566 2.18899 17.0296 1.85229 17.8012 1.85229C18.5728 1.85229 20.0459 2.18899 21.1682 4.44768L23.6373 9.38594C23.8337 9.76473 24.437 10.2137 24.8579 10.2838L29.3332 11.0273C31.7602 11.4342 32.5178 12.7249 32.7422 13.4544C32.9667 14.1839 33.107 15.671 31.3814 17.4106L27.9022 20.9039C27.5655 21.2406 27.3551 21.9981 27.4533 22.4611L28.4493 26.768C29.0947 29.5739 28.0986 30.7944 27.4533 31.2714C27.1025 31.5239 26.5414 31.8045 25.7417 31.8045ZM17.8012 26.0806C18.4886 26.0806 19.1761 26.249 19.7232 26.5716L23.9179 29.0548C25.1385 29.7843 25.9101 29.7843 26.2047 29.5739C26.4993 29.3634 26.7097 28.6199 26.4011 27.245L25.405 22.9381C25.1384 21.7737 25.5734 20.2725 26.4151 19.4168L29.8943 15.9375C30.5818 15.2501 30.8904 14.5767 30.7501 14.1138C30.5958 13.6508 29.9504 13.272 28.9965 13.1177L24.5212 12.3741C23.4409 12.1918 22.2625 11.322 21.7715 10.3399L19.3023 5.40167C18.8534 4.5038 18.2922 3.97069 17.8012 3.97069C17.3102 3.97069 16.749 4.5038 16.3141 5.40167L13.831 10.3399C13.3399 11.322 12.1615 12.1918 11.0813 12.3741L6.61999 13.1177C5.66601 13.272 5.02067 13.6508 4.86635 14.1138C4.71203 14.5767 5.0347 15.2641 5.72213 15.9375L9.20135 19.4168C10.0431 20.2585 10.478 21.7737 10.2114 22.9381L9.21538 27.245C8.89271 28.6339 9.11718 29.3634 9.41179 29.5739C9.7064 29.7843 10.464 29.7703 11.6985 29.0548L15.8933 26.5716C16.4264 26.249 17.1138 26.0806 17.8012 26.0806Z" fill="url(#paint0_linear_69_10698)"/>
<defs>
<linearGradient id="paint0_linear_69_10698" x1="2.71973" y1="16.8284" x2="32.8736" y2="16.8284" gradientUnits="userSpaceOnUse">
<stop stop-color="#7B61FF"/>
<stop offset="1" stop-color="#FF61DA"/>
</linearGradient>
</defs>
</svg>
