<svg width="34" height="34" viewBox="0 0 34 34" fill="none" xmlns="http://www.w3.org/2000/svg">
<path d="M25.0425 31.8043C24.2989 31.8043 23.345 31.5658 22.1525 30.8643L17.9578 28.3811C17.5229 28.1286 16.6811 28.1286 16.2602 28.3811L12.0515 30.8643C9.56835 32.3374 8.10932 31.7481 7.44995 31.2711C6.80461 30.7942 5.79451 29.5736 6.45388 26.7678L7.44995 22.4608C7.56218 22.0119 7.33772 21.2403 7.00102 20.9036L3.52179 17.4244C1.78218 15.6848 1.92247 14.1977 2.16096 13.4682C2.39946 12.7387 3.15703 11.448 5.57004 11.0411L10.0453 10.2976C10.4662 10.2274 11.0695 9.77851 11.2518 9.39972L13.735 4.44744C14.8573 2.18875 16.3304 1.85205 17.102 1.85205C17.8736 1.85205 19.3467 2.18875 20.469 4.44744L22.9381 9.3857C23.1345 9.76448 23.7378 10.2134 24.1586 10.2836L28.6339 11.0271C31.061 11.4339 31.8186 12.7246 32.043 13.4541C32.2675 14.1837 32.4078 15.6707 30.6822 17.4104L27.203 20.9036C26.8663 21.2403 26.6558 21.9979 26.754 22.4608L27.7501 26.7678C28.3954 29.5736 27.3994 30.7942 26.754 31.2711C26.4033 31.5237 25.8421 31.8043 25.0425 31.8043Z" fill="url(#paint0_linear_159_2044)"/>
<defs>
<linearGradient id="paint0_linear_159_2044" x1="2.02051" y1="16.8281" x2="32.1744" y2="16.8281" gradientUnits="userSpaceOnUse">
<stop stop-color="#7B61FF"/>
<stop offset="1" stop-color="#FF61DA"/>
</linearGradient>
</defs>
</svg>
