<svg width="30" height="31" viewBox="0 0 30 31" fill="none" xmlns="http://www.w3.org/2000/svg">
<rect y="0.5" width="30" height="30" rx="15" fill="#7B61FF"/>
<path d="M18.3294 20.4441H11.6711C11.3736 20.4441 11.0407 20.2104 10.9415 19.927L8.00901 11.7245C7.5911 10.5487 8.07985 10.1875 9.08568 10.91L11.8482 12.8862C12.3086 13.205 12.8328 13.042 13.0311 12.525L14.2778 9.20288C14.6744 8.14038 15.3332 8.14038 15.7298 9.20288L16.9765 12.525C17.1748 13.042 17.699 13.205 18.1523 12.8862L20.7448 11.0375C21.8498 10.2441 22.3811 10.6479 21.9278 11.93L19.0661 19.9412C18.9598 20.2104 18.6269 20.4441 18.3294 20.4441Z" stroke="white" stroke-width="1.34375" stroke-linecap="round" stroke-linejoin="round"/>
<path d="M11.1045 22.5833H18.8962" stroke="white" stroke-width="1.34375" stroke-linecap="round" stroke-linejoin="round"/>
<path d="M13.2295 16.9167H16.7712" stroke="white" stroke-width="1.34375" stroke-linecap="round" stroke-linejoin="round"/>
</svg>
