<svg width="30" height="31" viewBox="0 0 30 31" fill="none" xmlns="http://www.w3.org/2000/svg">
<rect y="0.5" width="30" height="30" rx="15" fill="#7B61FF"/>
<path d="M17.3186 20.1364H9.59135V10.8636H17.3186V11.6364H18.8641V8.54545C18.8641 7.69545 18.1686 7 17.3186 7H9.59135C8.74135 7 8.0459 7.69545 8.0459 8.54545V22.4545C8.0459 23.3045 8.74135 24 9.59135 24H17.3186C18.1686 24 18.8641 23.3045 18.8641 22.4545V19.3636H17.3186V20.1364ZM9.59135 8.54545H17.3186V9.31818H9.59135V8.54545ZM17.3186 22.4545H9.59135V21.6818H17.3186V22.4545Z" fill="white"/>
<path d="M19.9304 13.6609L20.4095 14.7273L20.8886 13.6609L21.955 13.1818L20.8886 12.7027L20.4095 11.6364L19.9304 12.7027L18.8641 13.1818L19.9304 13.6609Z" fill="white"/>
<path d="M16.5459 12.4091L15.58 14.5341L13.455 15.5L15.58 16.4659L16.5459 18.5909L17.5118 16.4659L19.6368 15.5L17.5118 14.5341L16.5459 12.4091Z" fill="white"/>
<path d="M20.4095 16.2727L19.9304 17.3391L18.8641 17.8182L19.9304 18.2973L20.4095 19.3636L20.8886 18.2973L21.955 17.8182L20.8886 17.3391L20.4095 16.2727Z" fill="white"/>
</svg>
