<svg width="22" height="24" viewBox="0 0 22 24" fill="none" xmlns="http://www.w3.org/2000/svg">
<path d="M8 0C7.73478 0 7.48043 0.105357 7.29289 0.292893C7.10536 0.48043 7 0.734784 7 1V2H6.824C5.99256 2.00001 5.1847 2.27634 4.52743 2.78554C3.87016 3.29474 3.40075 4.00793 3.193 4.813L2.629 7H1.25C1.05109 7 0.860322 7.07902 0.71967 7.21967C0.579018 7.36032 0.5 7.55109 0.5 7.75C0.5 7.94891 0.579018 8.13968 0.71967 8.28033C0.860322 8.42098 1.05109 8.5 1.25 8.5H2.241L1.953 9.617C1.38796 9.7881 0.892987 10.1365 0.541273 10.6107C0.189559 11.0848 -0.000219903 11.6596 1.91222e-07 12.25V21.25C1.91222e-07 21.9793 0.289732 22.6788 0.805457 23.1945C1.32118 23.7103 2.02065 24 2.75 24H3.75C4.47935 24 5.17882 23.7103 5.69454 23.1945C6.21027 22.6788 6.5 21.9793 6.5 21.25V20.25H15.5V21.25C15.5 21.9793 15.7897 22.6788 16.3055 23.1945C16.8212 23.7103 17.5207 24 18.25 24H19.25C19.9793 24 20.6788 23.7103 21.1945 23.1945C21.7103 22.6788 22 21.9793 22 21.25V12.25C22.0002 11.6596 21.8104 11.0848 21.4587 10.6107C21.107 10.1365 20.612 9.7881 20.047 9.617L19.758 8.5H20.75C20.9489 8.5 21.1397 8.42098 21.2803 8.28033C21.421 8.13968 21.5 7.94891 21.5 7.75C21.5 7.55109 21.421 7.36032 21.2803 7.21967C21.1397 7.07902 20.9489 7 20.75 7H19.371L18.807 4.813C18.5993 4.00793 18.1298 3.29474 17.4726 2.78554C16.8153 2.27634 16.0074 2.00001 15.176 2H15V1C15 0.734784 14.8946 0.48043 14.7071 0.292893C14.5196 0.105357 14.2652 0 14 0H8ZM15.176 3.5C15.6748 3.50015 16.1594 3.66604 16.5536 3.97159C16.9479 4.27713 17.2294 4.70502 17.354 5.188L18.467 9.5H3.533L4.645 5.188C4.76963 4.70486 5.05132 4.27685 5.44577 3.97128C5.84021 3.66571 6.32504 3.49993 6.824 3.5H15.176ZM17 20.25H20.5V21.25C20.5 21.94 19.94 22.5 19.25 22.5H18.25C17.56 22.5 17 21.94 17 21.25V20.25ZM5 21.25C5 21.94 4.44 22.5 3.75 22.5H2.75C2.06 22.5 1.5 21.94 1.5 21.25V20.25H5V21.25ZM4 14.25C4 13.9185 4.1317 13.6005 4.36612 13.3661C4.60054 13.1317 4.91848 13 5.25 13C5.58152 13 5.89946 13.1317 6.13388 13.3661C6.3683 13.6005 6.5 13.9185 6.5 14.25C6.5 14.5815 6.3683 14.8995 6.13388 15.1339C5.89946 15.3683 5.58152 15.5 5.25 15.5C4.91848 15.5 4.60054 15.3683 4.36612 15.1339C4.1317 14.8995 4 14.5815 4 14.25ZM16.75 15.5C16.4185 15.5 16.1005 15.3683 15.8661 15.1339C15.6317 14.8995 15.5 14.5815 15.5 14.25C15.5 13.9185 15.6317 13.6005 15.8661 13.3661C16.1005 13.1317 16.4185 13 16.75 13C17.0815 13 17.3995 13.1317 17.6339 13.3661C17.8683 13.6005 18 13.9185 18 14.25C18 14.5815 17.8683 14.8995 17.6339 15.1339C17.3995 15.3683 17.0815 15.5 16.75 15.5ZM13.25 15.5C13.4489 15.5 13.6397 15.579 13.7803 15.7197C13.921 15.8603 14 16.0511 14 16.25C14 16.4489 13.921 16.6397 13.7803 16.7803C13.6397 16.921 13.4489 17 13.25 17H8.75C8.55109 17 8.36032 16.921 8.21967 16.7803C8.07902 16.6397 8 16.4489 8 16.25C8 16.0511 8.07902 15.8603 8.21967 15.7197C8.36032 15.579 8.55109 15.5 8.75 15.5H13.25Z" fill="white"/>
</svg>
