<svg width="12" height="12" viewBox="0 0 12 12" fill="none" xmlns="http://www.w3.org/2000/svg">
<path d="M8.56667 0.566667L9.53333 1.53333L8.08 2.97333C7.82 3.23333 7.82 3.66 8.08 3.92C8.34 4.18 8.76667 4.18 9.02667 3.92L10.4667 2.46667L11.4333 3.43333C11.64 3.64 12 3.49333 12 3.19333V0.333333C12 0.146667 11.8533 0 11.6667 0H8.80667C8.50667 0 8.36 0.36 8.56667 0.566667ZM0.566667 3.43333L1.53333 2.46667L2.97333 3.92C3.23333 4.18 3.66 4.18 3.92 3.92C4.18 3.66 4.18 3.23333 3.92 2.97333L2.46667 1.53333L3.43333 0.566667C3.64 0.36 3.49333 0 3.19333 0H0.333333C0.146667 0 0 0.146667 0 0.333333V3.19333C0 3.49333 0.36 3.64 0.566667 3.43333ZM3.43333 11.4333L2.46667 10.4667L3.92 9.02667C4.18 8.76667 4.18 8.34 3.92 8.08C3.66 7.82 3.23333 7.82 2.97333 8.08L1.53333 9.53333L0.566667 8.56667C0.36 8.36 0 8.50667 0 8.80667V11.6667C0 11.8533 0.146667 12 0.333333 12H3.19333C3.49333 12 3.64 11.64 3.43333 11.4333ZM11.4333 8.56667L10.4667 9.53333L9.02667 8.08C8.76667 7.82 8.34 7.82 8.08 8.08C7.82 8.34 7.82 8.76667 8.08 9.02667L9.53333 10.4667L8.56667 11.4333C8.36 11.64 8.50667 12 8.80667 12H11.6667C11.8533 12 12 11.8533 12 11.6667V8.80667C12 8.50667 11.64 8.36 11.4333 8.56667Z" fill="#292D32"/>
</svg>
