<svg width="29" height="29" viewBox="0 0 29 29" fill="none" xmlns="http://www.w3.org/2000/svg">
<circle cx="14.0261" cy="14.0261" r="14.0261" fill="white"/>
<path d="M16.5667 8.56667L17.5333 9.53333L16.08 10.9733C15.82 11.2333 15.82 11.66 16.08 11.92C16.34 12.18 16.7667 12.18 17.0267 11.92L18.4667 10.4667L19.4333 11.4333C19.64 11.64 20 11.4933 20 11.1933V8.33333C20 8.14667 19.8533 8 19.6667 8H16.8067C16.5067 8 16.36 8.36 16.5667 8.56667ZM8.56667 11.4333L9.53333 10.4667L10.9733 11.92C11.2333 12.18 11.66 12.18 11.92 11.92C12.18 11.66 12.18 11.2333 11.92 10.9733L10.4667 9.53333L11.4333 8.56667C11.64 8.36 11.4933 8 11.1933 8H8.33333C8.14667 8 8 8.14667 8 8.33333V11.1933C8 11.4933 8.36 11.64 8.56667 11.4333ZM11.4333 19.4333L10.4667 18.4667L11.92 17.0267C12.18 16.7667 12.18 16.34 11.92 16.08C11.66 15.82 11.2333 15.82 10.9733 16.08L9.53333 17.5333L8.56667 16.5667C8.36 16.36 8 16.5067 8 16.8067V19.6667C8 19.8533 8.14667 20 8.33333 20H11.1933C11.4933 20 11.64 19.64 11.4333 19.4333ZM19.4333 16.5667L18.4667 17.5333L17.0267 16.08C16.7667 15.82 16.34 15.82 16.08 16.08C15.82 16.34 15.82 16.7667 16.08 17.0267L17.5333 18.4667L16.5667 19.4333C16.36 19.64 16.5067 20 16.8067 20H19.6667C19.8533 20 20 19.8533 20 19.6667V16.8067C20 16.5067 19.64 16.36 19.4333 16.5667Z" fill="#292D32"/>
</svg>
